<svg xmlns="http://www.w3.org/2000/svg" xmlns:xlink="http://www.w3.org/1999/xlink" viewBox="0 0 512 512"><style><![CDATA[.B{stroke-width:.12}.C{stroke:#f87b00}.D{stroke:#1b1464}]]></style><defs><linearGradient id="A" x1="506.63" y1="399.98" x2="330.96" y2="137.78" xlink:href="#R"><stop offset=".13" stop-color="#f7d80a"/><stop offset=".5" stop-color="#f7d60a"/><stop offset=".63" stop-color="#f7cf09"/><stop offset=".73" stop-color="#f7c408"/><stop offset=".8" stop-color="#f7b306"/><stop offset=".87" stop-color="#f89d03"/><stop offset=".93" stop-color="#f88201"/><stop offset=".94" stop-color="#f87d00"/></linearGradient><linearGradient id="B" x1="443.28" y1="454.7" x2="258.79" y2="179.33" xlink:href="#R"><stop offset=".13" stop-color="#f7d80a"/><stop offset=".47" stop-color="#f7d60a"/><stop offset=".6" stop-color="#f7cf09"/><stop offset=".69" stop-color="#f7c408"/><stop offset=".76" stop-color="#f7b306"/><stop offset=".82" stop-color="#f89d03"/><stop offset=".87" stop-color="#f88201"/><stop offset=".88" stop-color="#f87d00"/></linearGradient><linearGradient id="C" x1="501.06" y1="167.89" x2="186.96" y2="342.28" xlink:href="#R"><stop offset="0" stop-color="#0acef1"/><stop offset=".18" stop-color="#0acaee"/><stop offset=".36" stop-color="#0bbee5"/><stop offset=".53" stop-color="#0dabd6"/><stop offset=".7" stop-color="#0f8fc2"/><stop offset=".88" stop-color="#126ca7"/><stop offset="1" stop-color="#144d90"/></linearGradient><linearGradient id="D" x1="-34.23" y1="313.76" x2="358.42" y2="148.78" xlink:href="#R"><stop offset=".21" stop-color="#154388"/><stop offset=".23" stop-color="#15478b"/><stop offset=".6" stop-color="#0e99c9"/><stop offset=".87" stop-color="#0bccf0"/><stop offset="1" stop-color="#09e0ff"/></linearGradient><linearGradient id="E" x1="90.63" y1="183.56" x2="254.79" y2="183.56" xlink:href="#R"><stop offset="0" stop-color="#07dffe"/><stop offset=".2" stop-color="#0ac0e7"/><stop offset=".57" stop-color="#0f88bd"/><stop offset=".85" stop-color="#1366a4"/><stop offset="1" stop-color="#14599a"/></linearGradient><linearGradient id="F" x1="116.41" y1="349.63" x2="259.89" y2="349.63" xlink:href="#R"><stop offset=".01" stop-color="#f87700"/><stop offset="1" stop-color="#ffdf08"/></linearGradient><linearGradient id="G" x1="73.55" y1="279.54" x2="273.26" y2="279.54" xlink:href="#R"><stop offset="0" stop-color="#f9e309"/><stop offset="1" stop-color="#ec8311"/></linearGradient><linearGradient id="H" x1="56.8" y1="194.68" x2="24.13" y2="233.38" xlink:href="#R"><stop offset=".03" stop-color="#173b82"/><stop offset=".18" stop-color="#1363a1"/><stop offset=".36" stop-color="#0f8ec2"/><stop offset=".54" stop-color="#0cafdc"/><stop offset=".71" stop-color="#0ac7ef"/><stop offset=".86" stop-color="#08d5fa"/><stop offset="1" stop-color="#08dafe"/></linearGradient><linearGradient id="I" x1="23.09" y1="286.35" x2="137.41" y2="263.91" xlink:href="#R"><stop offset=".01" stop-color="#1b1464"/><stop offset=".03" stop-color="#1a1b6a"/><stop offset=".16" stop-color="#164d90"/><stop offset=".29" stop-color="#1278b1"/><stop offset=".43" stop-color="#0f9acc"/><stop offset=".57" stop-color="#0db5e1"/><stop offset=".71" stop-color="#0bc9f0"/><stop offset=".85" stop-color="#0ad4f9"/><stop offset="1" stop-color="#0ad8fc"/></linearGradient><linearGradient id="J" x1="51.44" y1="172.76" x2="85.47" y2="418.51" xlink:href="#R"><stop offset=".01" stop-color="#ec8511"/><stop offset=".3" stop-color="#ef9c0f"/><stop offset=".9" stop-color="#f8d60b"/><stop offset="1" stop-color="#f9e00a"/></linearGradient><linearGradient id="K" x1="431.29" y1="422.72" x2="401.15" y2="265.2" xlink:href="#R"><stop offset=".25" stop-color="#f9e00a"/><stop offset=".3" stop-color="#f8d90b"/><stop offset=".67" stop-color="#f0a40e"/><stop offset=".85" stop-color="#ed9010"/><stop offset=".95" stop-color="#ed8c10"/><stop offset="1" stop-color="#ec8611"/></linearGradient><linearGradient id="L" x1="430.77" y1="259.19" x2="476.33" y2="271.29" xlink:href="#R"><stop offset="0" stop-color="#1b1464"/><stop offset=".09" stop-color="#174288"/><stop offset=".19" stop-color="#146aa7"/><stop offset=".29" stop-color="#118cc1"/><stop offset=".4" stop-color="#0ea8d7"/><stop offset=".51" stop-color="#0cbee8"/><stop offset=".64" stop-color="#0bcdf4"/><stop offset=".78" stop-color="#0ad6fb"/><stop offset="1" stop-color="#0ad9fd"/></linearGradient><linearGradient id="M" x1="430.87" y1="206.45" x2="495.43" y2="221.22" xlink:href="#R"><stop offset=".21" stop-color="#1b1464"/><stop offset=".28" stop-color="#174288"/><stop offset=".35" stop-color="#146aa7"/><stop offset=".44" stop-color="#118cc1"/><stop offset=".52" stop-color="#0ea8d7"/><stop offset=".61" stop-color="#0cbee8"/><stop offset=".71" stop-color="#0bcdf4"/><stop offset=".83" stop-color="#0ad6fb"/><stop offset="1" stop-color="#0ad9fd"/></linearGradient><linearGradient id="N" x1="558.55" y1="335.47" x2="333.34" y2="226" xlink:href="#R"><stop offset=".41" stop-color="#144a8e"/><stop offset=".44" stop-color="#125f9e"/><stop offset=".51" stop-color="#1084b9"/><stop offset=".57" stop-color="#0da2d0"/><stop offset=".64" stop-color="#0bb9e2"/><stop offset=".72" stop-color="#0acaee"/><stop offset=".8" stop-color="#09d4f6"/><stop offset=".9" stop-color="#09d7f8"/></linearGradient><path id="O" d="M54.6 193.7c-8.1-2.4-18.2-2.3-38.6 26.8 5.8-.3 9.2.5 15.9-.4 14.6-22.5 23.4-21.3 31.2-9.2-.5-7.4-1.5-15.1-8.5-17.2z"/><path id="P" d="M82.7 172.2c-2.9-3.6-31-3.1-48.9 13.3a51.1 51.1 0 0 0-13.7 19.8c-1.8 4.4-3.7 14.6-4.1 15.2 12-16.9 26.2-34.4 41.9-25.2 2.7 1.6 4.3 6.3 5.1 13.9 2 18.9 2.6 25.4 2.9 36.2 2.6 90.5-17.3 134.5-16 135.9a54.6 54.6 0 0 0 6.9 5.4c-.9-1.2 0-10.1 4.8-34.8 5.8-29.4 14.9-119.1 15.2-158.2 0-.2-.4-4 .6-13.5.4-4.9 6.3-6.7 5.3-8z"/><path id="Q" d="M88.4 384.6c-4.3-23.1-10.1-83.8-10.9-152.2-.1-8.6.3-21.2.2-29.8-.1-10.4-.1-11.4-.5-19.5 0-.2-.6 8.5-1 32.3-.4 19.8-5.9 69.4-9.2 100.4-2.2 21.3-9.9 61.1-10 64.2-.1 1-1.9 10.6 2.3 5.1 3-4 29.1-.1 29.1-.5z"/><linearGradient id="R" gradientUnits="userSpaceOnUse"/></defs><g class="B C"><path d="M391.1,227.2c.4,1.8.2.7,0,0Z" fill="url(#A)"/><path d="M406.2 255.1c.2 4.9-.4 8.2-.6 13s-.6 9.5-.8 11.9c-2.7 33-10.8 50.7-17.3 62.1a50.7 50.7 0 0 1-20.8 19.9c-9.4 4.9-22 6.3-36.8 6.5s-27.9-2.8-32.7-4.7-16.4-4.6-25.6-19.9c-5.7-9.4-6.3-17.1-8.1-22.8l-2.1-14.9a90.8 90.8 0 0 1-.6-11.7v-.7c-.1-1.8-.1-3.8-.1-5.9s-.1-3.1-.1-4.7v-1.8c0-2.6 0-15.5.6-22.7a79.9 79.9 0 0 1 5.7-23.8c1.9-4.4 9.4-21.6 27-30.6 10.9-5.6 23.4-7.8 36.1-7.4 14.5.5 20.5 2.9 27 5.6 9.1 3.9 14 7.6 17.7 11.2a58.8 58.8 0 0 1 8.9 11 90.7 90.7 0 0 1 8.2 17.4c5.1 14.8 3.8 35.1 4 35.1v-10.8l-.1-14.1c-.1-2.9-.4-5.7-.7-9s-.9-9.6-2.1-16.3c-1.5-8.4-4.8-18.2-11-26.5a52.7 52.7 0 0 0-10.2-9.4c-9.6-6.1-19.4-10.6-38.5-11.3s-28.5 2-42.8 8.7c-5.8 2.7-12.5 8.1-16.4 12.3s-8.1 11-10.9 15.9c-4 6.8-7.5 18-10 29.5a183.6 183.6 0 0 0-3 25.6l-.2 6.1c-.1 19.1 2.7 38.1 5.7 49.5 4.3 16.3 13.3 30.4 17.5 35.5s14 18.1 33.2 21.4c15.2 2.6 42.7.4 44.6.2 14.2-1.9 21.9-6.5 31.1-14.2.6-.5 1.1-1.1 1.6-1.6 12.1-14.3 14.1-24.4 15.4-29.6 3.3-12.8 4.6-25.5 5.8-38.8 1.7-19.7 1.8-38.3 1.4-45.2z" fill="url(#B)"/></g><g class="D B"><path d="M249.9 275.4v-.4l.2-5.6a151.4 151.4 0 0 1 3.9-27.7 96.6 96.6 0 0 1 11.1-28.3 60.9 60.9 0 0 1 12.3-15.4 57.7 57.7 0 0 1 14.7-9.7c12.5-5.8 22.5-8.6 41-7.9s28.1 4.8 37.5 10.7a39.2 39.2 0 0 1 7.4 5.9c7.6 7.5 11.4 16.8 13.5 25.1.4 1.3.7 2.6 1 4 .8 4.4 1.2 8.2 1.6 11a188.6 188.6 0 0 1 1.7 30v7.9c-.1.7-.4 11.9-.4 12-.9 10.8-7.3 36.9-15.3 44.7-10.5 10.4-27.1 17-49.8 17.2-20.2.2-46.7-8-56.3-18.7-11-12.3-13.1-30.7-13.3-41.1 0 .5-.8 36.9 11.5 56 5 7.8 11.3 13.7 23.4 18.2 14.8 5.4 28.4 5.3 37.7 5.2 19-.2 27.9-4 32.9-6.3 9.6-4.4 16.7-11.4 22.8-22.9 8.4-16.2 15-36.7 16.1-63.2l.5-9.3c.5-5.2.5-10.9.5-11.1-1.1-69.9-29.6-83.8-15.4-92.6 2.1-1.2-29.3-7.1-62.4-4.6-8.2.6-31.5.5-49 13.4-32.7 24.1-30.6 92.5-29.5 106.6 0-1.1.1-2.6.1-3.1z" fill="url(#C)"/><path d="M182.7 123.7c-44.9-2.5-65.5 11.3-68.7 13.4l-.9.6c-7.7 5.3-13.1 10.4-18.2 18.2l-1.2 1.7a23.9 23.9 0 0 0-1.6 3.2c-10.9 24.8-3.7 56.7-1.5 59.3 0 0 9.1-40.9 19.3-53.9 13-16.6 20.9-16.3 26.8-18.8 10.7-3.9 23.3-5.5 49.1-5 46.4.8 63.1 24.7 61.8 35.8-1.1 4.4-4.7 10-14.2 20.8-24.4 28-39.5 35.7-106.3 90-5.4 4.3-24.3 18.7-33.5 39.2-1.4 3.3-9.4 18.7-2.9 48.6-3.9-32.8 12.9-55 27.6-66.6 7.3-5.8 20.4-16.4 32.8-24.6 23-15.2 42.2-30 63.3-46.6s32.8-24 41.8-33.3a85.4 85.4 0 0 0 9.3-10.9c2.1-3 2.6-3.4 4.7-9.2 1.3-3.6 2.7-12.6 2.1-17.3-1.8-15.9-7.5-19.3 1-29.6.1-.1-.5-10-90.6-15z" fill="url(#D)"/><path d="M182.5 142.1c-39.4-.3-53.2 6.3-63 13.7-22 16.5-28.9 64.3-28.9 64.3 6.7 4.2 26.6 4.9 26.6 4.9-.9-5-.7-15.2.4-26 5.1-52.1 112.1-42.9 118.1-2.6 6.9-8.3 10.9-13.5 11.8-18.3 2.2-11.1-16.4-35.6-65-36z" fill="url(#E)"/></g><g class="C B"><path d="M242 329.6c-7.4 27.9-67.6 20.4-97.5 16.8-24.6-2.9-19-17-17.8-18.4-11.9 13.6-9.1 19.7-4.5 28.3 6 11.3 35.9 13.1 35.9 13.1 21.2 2.9 52 1.9 66.5.4 2.9-.3 13.7-1.7 22.2-5.4s13.3-16.1 13.1-17-4.8-5.1-17.9-17.8z" fill="url(#F)"/><path d="M245.9 220.2c7.5-6.7 21.2-16.1 26.5-34.4 1-3.6 1.1-9.1.4-15.3 0 0 .1 14.4-7.1 24.3-6.2 8.4-6.7 8.8-15.2 16.5l-60 46.2c-6.5 4.9-59.4 42-71.9 52.4-22.5 19-26.5 36.1-28.6 52.6-.5 4.3 1.1 27 5.3 23.9 16-11.9 30.1-3.5 57.5-.2 19.3 2.2 21.6 2.5 44.8 2.4 14.8-.1 34.1-2.9 45.2-7.2 6-2.5 12.7-6 16-13.4s1.5-20.6 1.4-20.6h0c-1.2 2.9-3.3 13.3-16.8 18.1-20.3 7.3-63.7 7.7-99.8 1.6-9.1-1.6-17.3-3.9-22.1-12.2-11.5-19.5 3.1-26.9 124.4-134.7z" fill="url(#G)"/></g><g class="D B"><use xlink:href="#O" fill="url(#H)"/><use xlink:href="#P" fill="url(#I)"/></g><use xlink:href="#Q" fill="url(#J)" class="B C"/><g fill="none" stroke-width=".07" class="D"><use xlink:href="#O"/><use xlink:href="#P"/><use xlink:href="#Q"/></g><g class="B"><path d="M418.4 317.9c-6.6-40.2-6.3-72-6.1-90.2 0-.4-.8 15.2-1 24.1-1.6 68.2-.6 91.1-6.1 130.5-.1.4 29-.7 34.8.8.1 0-13.6-17.1-21.6-65.2z" fill="url(#K)" class="C"/><g class="D"><path d="M466.5 263.9a4.4 4.4 0 0 0-5.3-2c-6.2 1.9-15.5 4-31.3-8.1.8 5.4 17.5 21.8 42.1 19.1.2 0-3.1-5-5.5-9z" fill="url(#L)"/><path d="M492.8 205c-1.8-1.5-4.4-3.4-11.8-4.4-9.8-1.3-19.9-.2-21.4.4-23.8 4.9-28.9 19.9-29.9 22.7 9.7-21 33.9-21.2 51.4-14l13.6-2.4a22.2 22.2 0 0 0-1.9-2.3z" fill="url(#M)"/><path d="M429.8 223.9c5.5-18.7 29-22.9 30.6-23.1l5.3-.7h.7a32.8 32.8 0 0 1 4.3-.1h2.1c3.5.1 6.5.4 9.1.7 9.7 1.2 12.9 6.6 12.9 6.6s2.7-4.1-1.4-7.1c-11.9-10.4-29.4-13.2-44.6-14.8-25.3-2.7-34.2 3.7-33.1 4 5.1 1.3 3 7.8 2.1 9.2-5.9 8.8-5 21.5-5.4 27.5-.5 8.1 0 26.6.3 38.7.5 19.1 2.7 31.5 4 41.9 1.1 8 4.4 26 6 32.3 2.4 9.5 4.3 17.1 9.2 28.9a118.4 118.4 0 0 0 7.2 14.1s.9 1.4 1.1 1.2a52.2 52.2 0 0 0 4.2-3.6 1.5 1.5 0 0 0 .2-1.6c-33-70.1-16.1-93.9-11.7-96.3s24.5.2 25.3.3c16 3.3 14-9.2 13.8-9.2a47.7 47.7 0 0 1-6.5.1 33.9 33.9 0 0 1-8.4-1.1c-13-3.2-17.8-7.7-23-12.5-2.3-2.2-6.6-7.9-5.6-24.6a69.4 69.4 0 0 1 1.3-10.8z" stroke-miterlimit="10" fill="url(#N)"/></g></g></svg>