<svg xmlns="http://www.w3.org/2000/svg" xmlns:xlink="http://www.w3.org/1999/xlink" viewBox="0 0 512 283"><style><![CDATA[.B{stroke-width:.12}.C{stroke:#f87b00}.D{stroke:#1b1464}]]></style><defs><linearGradient id="A" x1="523.34" y1="295.08" x2="335.96" y2="15.4" xlink:href="#R"><stop offset=".13" stop-color="#f7d80a"/><stop offset=".5" stop-color="#f7d60a"/><stop offset=".63" stop-color="#f7cf09"/><stop offset=".73" stop-color="#f7c408"/><stop offset=".8" stop-color="#f7b306"/><stop offset=".87" stop-color="#f89d03"/><stop offset=".93" stop-color="#f88201"/><stop offset=".94" stop-color="#f87d00"/></linearGradient><linearGradient id="B" x1="455.76" y1="353.45" x2="258.97" y2="59.72" xlink:href="#R"><stop offset=".13" stop-color="#f7d80a"/><stop offset=".47" stop-color="#f7d60a"/><stop offset=".6" stop-color="#f7cf09"/><stop offset=".69" stop-color="#f7c408"/><stop offset=".76" stop-color="#f7b306"/><stop offset=".82" stop-color="#f89d03"/><stop offset=".87" stop-color="#f88201"/><stop offset=".88" stop-color="#f87d00"/></linearGradient><linearGradient id="C" x1="517.39" y1="47.51" x2="182.35" y2="233.53" xlink:href="#R"><stop offset="0" stop-color="#0acef1"/><stop offset=".18" stop-color="#0acaee"/><stop offset=".36" stop-color="#0bbee5"/><stop offset=".53" stop-color="#0dabd6"/><stop offset=".7" stop-color="#0f8fc2"/><stop offset=".88" stop-color="#126ca7"/><stop offset="1" stop-color="#144d90"/></linearGradient><linearGradient id="D" x1="-53.58" y1="203.11" x2="365.25" y2="27.14" xlink:href="#R"><stop offset=".21" stop-color="#154388"/><stop offset=".23" stop-color="#15478b"/><stop offset=".6" stop-color="#0e99c9"/><stop offset=".87" stop-color="#0bccf0"/><stop offset="1" stop-color="#09e0ff"/></linearGradient><linearGradient id="E" x1="79.6" y1="64.23" x2="254.71" y2="64.23" xlink:href="#R"><stop offset="0" stop-color="#07dffe"/><stop offset=".2" stop-color="#0ac0e7"/><stop offset=".57" stop-color="#0f88bd"/><stop offset=".85" stop-color="#1366a4"/><stop offset="1" stop-color="#14599a"/></linearGradient><linearGradient id="F" x1="107.1" y1="241.38" x2="260.15" y2="241.38" xlink:href="#R"><stop offset=".01" stop-color="#f87700"/><stop offset="1" stop-color="#ffdf08"/></linearGradient><linearGradient id="G" x1="61.38" y1="166.61" x2="274.41" y2="166.61" xlink:href="#R"><stop offset="0" stop-color="#f9e309"/><stop offset="1" stop-color="#ec8311"/></linearGradient><linearGradient id="H" x1="43.52" y1="76.09" x2="8.67" y2="117.37" xlink:href="#R"><stop offset=".03" stop-color="#173b82"/><stop offset=".18" stop-color="#1363a1"/><stop offset=".36" stop-color="#0f8ec2"/><stop offset=".54" stop-color="#0cafdc"/><stop offset=".71" stop-color="#0ac7ef"/><stop offset=".86" stop-color="#08d5fa"/><stop offset="1" stop-color="#08dafe"/></linearGradient><linearGradient id="I" x1="7.56" y1="173.87" x2="129.51" y2="149.94" xlink:href="#R"><stop offset=".01" stop-color="#1b1464"/><stop offset=".03" stop-color="#1a1b6a"/><stop offset=".16" stop-color="#164d90"/><stop offset=".29" stop-color="#1278b1"/><stop offset=".43" stop-color="#0f9acc"/><stop offset=".57" stop-color="#0db5e1"/><stop offset=".71" stop-color="#0bc9f0"/><stop offset=".85" stop-color="#0ad4f9"/><stop offset="1" stop-color="#0ad8fc"/></linearGradient><linearGradient id="J" x1="37.8" y1="52.71" x2="74.1" y2="314.85" xlink:href="#R"><stop offset=".01" stop-color="#ec8511"/><stop offset=".3" stop-color="#ef9c0f"/><stop offset=".9" stop-color="#f8d60b"/><stop offset="1" stop-color="#f9e00a"/></linearGradient><linearGradient id="K" x1="442.98" y1="319.33" x2="410.83" y2="151.31" xlink:href="#R"><stop offset=".25" stop-color="#f9e00a"/><stop offset=".3" stop-color="#f8d90b"/><stop offset=".67" stop-color="#f0a40e"/><stop offset=".85" stop-color="#ed9010"/><stop offset=".95" stop-color="#ed8c10"/><stop offset="1" stop-color="#ec8611"/></linearGradient><linearGradient id="L" x1="442.42" y1="144.9" x2="491.02" y2="157.8" xlink:href="#R"><stop offset="0" stop-color="#1b1464"/><stop offset=".09" stop-color="#174288"/><stop offset=".19" stop-color="#146aa7"/><stop offset=".29" stop-color="#118cc1"/><stop offset=".4" stop-color="#0ea8d7"/><stop offset=".51" stop-color="#0cbee8"/><stop offset=".64" stop-color="#0bcdf4"/><stop offset=".78" stop-color="#0ad6fb"/><stop offset="1" stop-color="#0ad9fd"/></linearGradient><linearGradient id="M" x1="442.52" y1="88.65" x2="511.4" y2="104.4" xlink:href="#R"><stop offset=".21" stop-color="#1b1464"/><stop offset=".28" stop-color="#174288"/><stop offset=".35" stop-color="#146aa7"/><stop offset=".44" stop-color="#118cc1"/><stop offset=".52" stop-color="#0ea8d7"/><stop offset=".61" stop-color="#0cbee8"/><stop offset=".71" stop-color="#0bcdf4"/><stop offset=".83" stop-color="#0ad6fb"/><stop offset="1" stop-color="#0ad9fd"/></linearGradient><linearGradient id="N" x1="578.72" y1="226.27" x2="338.5" y2="109.51" xlink:href="#R"><stop offset=".41" stop-color="#144a8e"/><stop offset=".44" stop-color="#125f9e"/><stop offset=".51" stop-color="#1084b9"/><stop offset=".57" stop-color="#0da2d0"/><stop offset=".64" stop-color="#0bb9e2"/><stop offset=".72" stop-color="#0acaee"/><stop offset=".8" stop-color="#09d4f6"/><stop offset=".9" stop-color="#09d7f8"/></linearGradient><path id="O" d="M41.2 75c-8.7-2.5-19.5-2.4-41.2 28.6 6.2-.3 9.9.6 17-.4 15.6-24 24.9-22.7 33.3-9.8-.6-7.9-1.6-16.2-9.1-18.4z"/><path id="P" d="M71.2 52.2C68.1 48.3 38 48.9 19 66.3A54.1 54.1 0 0 0 4.4 87.4C2.5 92.2.5 102.9 0 103.6c12.8-18 28-36.7 44.7-26.9 2.8 1.7 4.6 6.7 5.5 14.9 2.1 20.1 2.7 27.1 3.1 38.6 2.7 96.5-18.5 143.4-17.1 145s7.7 6.2 7.4 5.7-.1-10.8 5.1-37.2c6.1-31.3 15.8-127 16.1-168.7a103.1 103.1 0 0 1 .6-14.3c.6-5.3 6.9-7.2 5.8-8.5z"/><path id="Q" d="M77.2 278.7c-4.5-24.6-10.7-89.4-11.6-162.3-.1-9.3.3-22.7.2-31.8-.1-11.1-.1-12.2-.5-20.9 0-.2-.7 9.1-1.1 34.5-.4 21.1-6.3 74-9.8 107.1-2.4 22.7-10.5 65.2-10.7 68.5 0 1.1-2 11.3 2.5 5.4 3.2-4.2 31.1-.1 31-.5z"/><linearGradient id="R" gradientUnits="userSpaceOnUse"/></defs><g class="B C"><path d="M400.1,110.8c.5,1.9.2.7,0,0Z" fill="url(#A)"/><path d="M416.2 140.5c.2 5.3-.4 8.8-.6 13.9s-.6 10.1-.8 12.7c-3 35.3-11.6 54.1-18.6 66.2a52.7 52.7 0 0 1-22.1 21.2c-10 5.3-23.5 6.8-39.2 7-17.3.2-29.8-3-34.9-5s-17.5-4.9-27.4-21.2c-6.1-10.1-6.7-18.2-8.6-24.4-.2-.7-2-13.4-2.3-15.9-.5-4.1-.5-8.2-.6-12.5v-.7c0-1.9-.1-4.1-.1-6.3s-.1-3.3-.1-5v-1.9c0-2.7 0-16.5.6-24.2a87.1 87.1 0 0 1 6.1-25.4c2.1-4.7 10-23.1 28.8-32.7 11.6-5.9 25-8.2 38.5-7.8 15.5.4 21.9 3 28.8 5.9 9.7 4.2 14.9 8.1 18.9 11.9a67.3 67.3 0 0 1 9.5 11.8 91.1 91.1 0 0 1 8.7 18.6c5.5 15.7 4.1 37.4 4.3 37.4s0-8.2.1-11.5l-.2-15c-.1-3.1-.4-6.1-.7-9.6s-1-10.3-2.3-17.5c-1.6-8.9-5.1-19.3-11.8-28.2a48.3 48.3 0 0 0-10.8-10c-10.2-6.6-20.7-11.3-41.1-12.1s-30.4 2.1-45.6 9.3c-6.2 2.9-13.3 8.6-17.5 13.1s-8.6 11.7-11.7 17c-4.2 7.2-8 19.2-10.6 31.4a171 171 0 0 0-3.1 27.4l-.3 6.5c-.1 20.4 2.9 40.6 6.1 52.7 4.5 17.5 14.1 32.4 18.6 37.9s15 19.4 35.4 22.9c16.3 2.7 45.6.4 47.7.1 15-1.9 23.3-6.9 33.1-15.1a13.7 13.7 0 0 0 1.7-1.7c12.9-15.2 15-26 16.4-31.5 3.5-13.7 5-27.2 6.2-41.5a395 395 0 0 0 1.5-48.2z" fill="url(#B)"/></g><g class="D B"><path d="M249.5 162.2v-.5l.2-5.9a160 160 0 0 1 4.2-29.6c2.9-12.2 6.9-22.1 11.8-30.1a65.3 65.3 0 0 1 13.1-16.5 61.2 61.2 0 0 1 15.6-10.3c13.4-6.2 24-9.2 43.7-8.4s30.1 5.1 40 11.4a45.1 45.1 0 0 1 7.9 6.2c8.1 8 12.2 18 14.4 26.8.4 1.4.8 2.8 1.1 4.3.9 4.7 1.3 8.8 1.7 11.7 1.3 9.7 1.9 17.1 1.8 32l.1 8.4c0 .7-.5 12.8-.5 12.9-1 11.5-7.8 39.3-16.3 47.7-11.2 11-29 18.1-53.2 18.3-21.4.2-49.8-8.6-60-20-11.7-13.1-14-32.7-14.2-43.7 0 .4-.9 39.3 12.3 59.6 5.3 8.3 12.1 14.6 25 19.4 15.7 5.8 30.2 5.7 40.1 5.6 20.4-.2 29.9-4.3 35.2-6.7 10.2-4.8 17.8-12.1 24.2-24.5 9-17.2 16.1-39.1 17.2-67.3.1-2.3.5-6.9.6-9.9.5-5.6.5-11.7.5-11.9-1.2-74.6-31.6-89.4-16.4-98.7 2.2-1.4-31.3-7.6-66.6-5-8.8.7-33.5.5-52.3 14.3-34.9 25.7-32.6 98.7-31.4 113.7.1-1.1.2-2.8.2-3.3z" fill="url(#C)"/><path d="M177.8.4c-47.8-2.7-69.9 12-73.2 14.2l-1.1.7C95.3 21 89.6 26.4 84.1 34.7l-1.2 1.9a20.3 20.3 0 0 0-1.7 3.3c-11.7 26.5-4 60.6-1.6 63.3 0 0 9.7-43.6 20.6-57.5 13.8-17.7 22.2-17.4 28.6-20 11.4-4.2 24.8-5.9 52.3-5.4 49.5.9 67.3 26.4 66 38.2-1.2 4.7-5.1 10.7-15.2 22.2-26 29.9-42.2 38.1-113.4 96-5.7 4.6-25.9 20-35.7 41.9-1.6 3.4-10.1 19.8-3.1 51.7-4.1-34.9 13.8-58.6 29.4-71 7.8-6.2 21.7-17.5 35-26.2 24.5-16.2 45-32 67.6-49.7s34.9-25.6 44.5-35.5a98 98 0 0 0 9.9-11.7c2.3-3.2 2.8-3.6 5-9.7 1.4-4 2.9-13.6 2.3-18.6-1.9-16.9-8-20.6 1.1-31.6 0-.1-.6-10.5-96.7-15.9z" fill="url(#D)"/><path d="M177.6 20c-42-.3-56.7 6.7-67.3 14.6-23.3 17.6-30.7 68.6-30.7 68.6 7.2 4.5 28.3 5.3 28.3 5.3-.9-5.4-.7-16.3.4-27.8 5.6-55.6 119.6-45.8 126.1-2.8 7.3-8.8 11.6-14.4 12.6-19.5 2.3-11.9-17.6-38-69.4-38.4z" fill="url(#E)"/></g><g class="C B"><path d="M241 220c-7.9 29.8-72.1 21.7-104 17.9-26.2-3.1-20.2-18.2-19-19.6-12.6 14.5-9.6 21-4.7 30.2 6.4 12 38.2 14 38.2 14 22.7 3.1 55.6 2 71.1.4 3-.3 14.6-1.8 23.6-5.7s14.2-17.3 13.9-18.2-5-5.4-19.1-19z" fill="url(#F)"/><path d="M245.2 103.3c8-7.1 22.6-17.1 28.3-36.7 1.1-3.8 1.2-9.7.4-16.3 0 0 .2 15.3-7.6 25.9-6.5 9-7.1 9.4-16.2 17.6l-64 49.3c-6.9 5.3-63.4 44.8-76.6 55.9-24 20.2-28.4 38.5-30.5 56.1-.6 4.6 1.1 28.8 5.6 25.5 17.1-12.8 32-3.7 61.4-.3 20.5 2.5 23 2.8 47.7 2.6 15.8 0 36.4-3 48.2-7.7 6.4-2.6 13.6-6.4 17.1-14.2 4.2-9.4 1.6-22.1 1.5-22h0c-1.3 3.1-3.5 14.2-17.9 19.3-21.7 7.8-68 8.2-106.5 1.7-9.7-1.7-18.5-4.2-23.6-13-12.2-20.8 3.3-28.7 132.7-143.7z" fill="url(#G)"/></g><g class="D B"><use xlink:href="#O" fill="url(#H)"/><use xlink:href="#P" fill="url(#I)"/></g><use xlink:href="#Q" stroke-width=".13" fill="url(#J)" class="C"/><g fill="none" stroke-width=".08" class="D"><use xlink:href="#O"/><use xlink:href="#P"/><use xlink:href="#Q"/></g><g class="B"><path d="M429.3 207.5c-7.1-42.9-6.8-76.8-6.5-96.2 0-.5-.9 16.2-1.2 25.7-1.6 72.7-.6 97.2-6.4 139.2-.1.5 30.9-.7 37.1.9 0 0-14.6-18.2-23-69.6z" fill="url(#K)" class="C"/><g class="D"><path d="M480.6 149.9a4.9 4.9 0 0 0-5.8-2.1c-6.5 2.1-16.5 4.2-33.3-8.6.8 5.7 18.6 23.2 44.9 20.3.2 0-3.3-5.4-5.8-9.6z" fill="url(#L)"/><path d="M508.6 87.1c-1.9-1.6-4.7-3.7-12.6-4.7-10.5-1.4-21.2-.2-22.8.4-25.5 5.2-30.9 21.2-31.9 24.3 10.3-22.5 36.1-22.7 54.8-15l14.5-2.6a24.9 24.9 0 0 0-2-2.4z" fill="url(#M)"/><path d="M441.3 107.3c6-19.9 31-24.4 32.8-24.7l5.5-.7h.8a41.2 41.2 0 0 1 4.6-.2h2.3c3.7.1 6.9.4 9.7.7 10.3 1.3 13.7 7.1 13.7 7.1s2.9-4.5-1.5-7.7c-12.6-11-31.4-13.9-47.5-15.7-27.1-2.9-36.5 4-35.4 4.3 5.5 1.3 3.2 8.3 2.3 9.8-6.3 9.3-5.4 22.9-5.8 29.3-.5 8.7 0 28.4.3 41.3.6 20.4 2.9 33.6 4.4 44.7 1.1 8.5 4.6 27.7 6.3 34.5 2.6 10 4.6 18.2 9.9 30.7a112.2 112.2 0 0 0 7.6 15.1s.9 1.5 1.2 1.3 3.7-3 4.5-3.9a1.5 1.5 0 0 0 .1-1.7c-35.2-74.7-17.1-100.1-12.4-102.7s26.1.2 26.9.4c17.2 3.4 15-9.9 14.8-9.9-2.5.2-4.8.2-7 .2a44.8 44.8 0 0 1-8.9-1.3c-13.8-3.3-19-8.2-24.5-13.3-2.5-2.3-7.1-8.4-6-26.2a76.7 76.7 0 0 1 1.3-11.4z" stroke-miterlimit="10" fill="url(#N)"/></g></g></svg>